<svg width="1122" height="106" viewBox="0 0 1122 106" fill="none" xmlns="http://www.w3.org/2000/svg">
<path d="M95.6193 40.3636H67.5795C67.3807 38.0436 66.8504 35.9389 65.9886 34.0497C65.16 32.1605 64 30.5365 62.5085 29.1776C61.0502 27.7855 59.277 26.7249 57.1889 25.9957C55.1009 25.2334 52.7311 24.8523 50.0795 24.8523C45.4394 24.8523 41.5118 25.9792 38.2969 28.233C35.1151 30.4867 32.6955 33.7183 31.0384 37.9276C29.4143 42.1368 28.6023 47.1913 28.6023 53.0909C28.6023 59.322 29.4309 64.5421 31.0881 68.7514C32.7784 72.9276 35.2145 76.0762 38.3963 78.1974C41.5781 80.2855 45.4063 81.3295 49.8807 81.3295C52.4328 81.3295 54.7197 81.0147 56.7415 80.3849C58.7633 79.7221 60.5199 78.7775 62.0114 77.5511C63.5028 76.3248 64.7126 74.8499 65.6406 73.1264C66.6018 71.3698 67.2481 69.3977 67.5795 67.2102L95.6193 67.4091C95.2879 71.7178 94.0781 76.1094 91.9901 80.5838C89.902 85.0251 86.9356 89.1349 83.0909 92.9134C79.2794 96.6586 74.5563 99.6747 68.9219 101.962C63.2874 104.249 56.7415 105.392 49.2841 105.392C39.9375 105.392 31.5521 103.387 24.1278 99.3764C16.7367 95.366 10.8868 89.4664 6.57812 81.6776C2.30256 73.8887 0.164773 64.3598 0.164773 53.0909C0.164773 41.7557 2.35227 32.2102 6.72727 24.4545C11.1023 16.6657 17.0019 10.7827 24.4261 6.80539C31.8504 2.79498 40.1364 0.789769 49.2841 0.789769C55.714 0.789769 61.6302 1.66808 67.0327 3.42471C72.4351 5.18134 77.1747 7.75 81.2514 11.1307C85.3281 14.4782 88.6094 18.6046 91.0952 23.5099C93.581 28.4152 95.089 34.0331 95.6193 40.3636ZM206.797 53.0909C206.797 64.4261 204.592 73.9882 200.184 81.777C195.776 89.5327 189.827 95.4157 182.336 99.4261C174.846 103.403 166.493 105.392 157.279 105.392C147.999 105.392 139.614 103.387 132.123 99.3764C124.666 95.3329 118.733 89.4332 114.325 81.6776C109.95 73.8887 107.762 64.3598 107.762 53.0909C107.762 41.7557 109.95 32.2102 114.325 24.4545C118.733 16.6657 124.666 10.7827 132.123 6.80539C139.614 2.79498 147.999 0.789769 157.279 0.789769C166.493 0.789769 174.846 2.79498 182.336 6.80539C189.827 10.7827 195.776 16.6657 200.184 24.4545C204.592 32.2102 206.797 41.7557 206.797 53.0909ZM178.359 53.0909C178.359 46.9924 177.547 41.8551 175.923 37.679C174.332 33.4697 171.962 30.2879 168.814 28.1335C165.698 25.946 161.853 24.8523 157.279 24.8523C152.706 24.8523 148.844 25.946 145.696 28.1335C142.58 30.2879 140.21 33.4697 138.586 37.679C136.995 41.8551 136.2 46.9924 136.2 53.0909C136.2 59.1894 136.995 64.3433 138.586 68.5526C140.21 72.7287 142.58 75.9105 145.696 78.098C148.844 80.2524 152.706 81.3295 157.279 81.3295C161.853 81.3295 165.698 80.2524 168.814 78.098C171.962 75.9105 174.332 72.7287 175.923 68.5526C177.547 64.3433 178.359 59.1894 178.359 53.0909ZM258.762 104H219.586V2.18182H258.364C268.838 2.18182 277.886 4.22017 285.509 8.29688C293.165 12.3404 299.065 18.1738 303.208 25.7969C307.384 33.3868 309.472 42.4848 309.472 53.0909C309.472 63.697 307.401 72.8116 303.258 80.4347C299.115 88.0246 293.248 93.858 285.658 97.9347C278.068 101.978 269.103 104 258.762 104ZM247.228 80.5341H257.768C262.806 80.5341 267.098 79.7221 270.644 78.098C274.224 76.474 276.942 73.6733 278.798 69.696C280.687 65.7187 281.631 60.1837 281.631 53.0909C281.631 45.9981 280.67 40.4631 278.748 36.4858C276.859 32.5085 274.075 29.7079 270.396 28.0838C266.75 26.4597 262.275 25.6477 256.972 25.6477H247.228V80.5341ZM322.262 104V2.18182H395.642V24.4545H349.904V41.9545H391.864V64.2273H349.904V81.7273H395.444V104H322.262ZM504.408 40.3636H476.369C476.17 38.0436 475.639 35.9389 474.778 34.0497C473.949 32.1605 472.789 30.5365 471.298 29.1776C469.839 27.7855 468.066 26.7249 465.978 25.9957C463.89 25.2334 461.52 24.8523 458.869 24.8523C454.228 24.8523 450.301 25.9792 447.086 28.233C443.904 30.4867 441.485 33.7183 439.827 37.9276C438.203 42.1368 437.391 47.1913 437.391 53.0909C437.391 59.322 438.22 64.5421 439.877 68.7514C441.567 72.9276 444.004 76.0762 447.185 78.1974C450.367 80.2855 454.195 81.3295 458.67 81.3295C461.222 81.3295 463.509 81.0147 465.531 80.3849C467.552 79.7221 469.309 78.7775 470.8 77.5511C472.292 76.3248 473.502 74.8499 474.43 73.1264C475.391 71.3698 476.037 69.3977 476.369 67.2102L504.408 67.4091C504.077 71.7178 502.867 76.1094 500.779 80.5838C498.691 85.0251 495.725 89.1349 491.88 92.9134C488.068 96.6586 483.345 99.6747 477.711 101.962C472.076 104.249 465.531 105.392 458.073 105.392C448.727 105.392 440.341 103.387 432.917 99.3764C425.526 95.366 419.676 89.4664 415.367 81.6776C411.092 73.8887 408.954 64.3598 408.954 53.0909C408.954 41.7557 411.141 32.2102 415.516 24.4545C419.891 16.6657 425.791 10.7827 433.215 6.80539C440.639 2.79498 448.925 0.789769 458.073 0.789769C464.503 0.789769 470.419 1.66808 475.822 3.42471C481.224 5.18134 485.964 7.75 490.04 11.1307C494.117 14.4782 497.398 18.6046 499.884 23.5099C502.37 28.4152 503.878 34.0331 504.408 40.3636ZM615.586 53.0909C615.586 64.4261 613.382 73.9882 608.973 81.777C604.565 89.5327 598.616 95.4157 591.125 99.4261C583.635 103.403 575.283 105.392 566.069 105.392C556.788 105.392 548.403 103.387 540.912 99.3764C533.455 95.3329 527.522 89.4332 523.114 81.6776C518.739 73.8887 516.551 64.3598 516.551 53.0909C516.551 41.7557 518.739 32.2102 523.114 24.4545C527.522 16.6657 533.455 10.7827 540.912 6.80539C548.403 2.79498 556.788 0.789769 566.069 0.789769C575.283 0.789769 583.635 2.79498 591.125 6.80539C598.616 10.7827 604.565 16.6657 608.973 24.4545C613.382 32.2102 615.586 41.7557 615.586 53.0909ZM587.148 53.0909C587.148 46.9924 586.336 41.8551 584.712 37.679C583.121 33.4697 580.751 30.2879 577.603 28.1335C574.487 25.946 570.642 24.8523 566.069 24.8523C561.495 24.8523 557.633 25.946 554.485 28.1335C551.369 30.2879 548.999 33.4697 547.375 37.679C545.784 41.8551 544.989 46.9924 544.989 53.0909C544.989 59.1894 545.784 64.3433 547.375 68.5526C548.999 72.7287 551.369 75.9105 554.485 78.098C557.633 80.2524 561.495 81.3295 566.069 81.3295C570.642 81.3295 574.487 80.2524 577.603 78.098C580.751 75.9105 583.121 72.7287 584.712 68.5526C586.336 64.3433 587.148 59.1894 587.148 53.0909ZM628.375 2.18182H662.778L686.443 59.8523H687.636L711.301 2.18182H745.705V104H718.659V45.1364H717.864L695.193 103.205H678.886L656.216 44.7386H655.42V104H628.375V2.18182ZM758.805 104V2.18182H802.754C810.31 2.18182 816.923 3.67329 822.59 6.65625C828.258 9.6392 832.666 13.8319 835.815 19.2344C838.963 24.6368 840.538 30.9508 840.538 38.1761C840.538 45.4678 838.914 51.7817 835.665 57.1179C832.451 62.4541 827.926 66.5639 822.093 69.4474C816.293 72.331 809.515 73.7727 801.759 73.7727H775.509V52.2955H796.191C799.439 52.2955 802.207 51.732 804.494 50.6051C806.814 49.4451 808.587 47.8044 809.813 45.6832C811.073 43.562 811.702 41.0597 811.702 38.1761C811.702 35.2595 811.073 32.7737 809.813 30.7188C808.587 28.6307 806.814 27.0398 804.494 25.946C802.207 24.8191 799.439 24.2557 796.191 24.2557H786.447V104H758.805ZM864.414 104H834.584L868.192 2.18182H905.976L939.584 104H909.755L887.482 30.2216H886.686L864.414 104ZM858.846 63.8295H914.925V84.5114H858.846V63.8295ZM1000.31 34C1000.05 30.6856 998.804 28.1004 996.583 26.2443C994.396 24.3883 991.065 23.4602 986.591 23.4602C983.74 23.4602 981.404 23.8082 979.581 24.5043C977.791 25.1671 976.465 26.0786 975.603 27.2386C974.742 28.3987 974.294 29.7244 974.261 31.2159C974.195 32.4422 974.41 33.5526 974.907 34.5469C975.438 35.508 976.266 36.3864 977.393 37.1818C978.52 37.9441 979.962 38.6401 981.718 39.2699C983.475 39.8996 985.563 40.4631 987.983 40.9602L996.335 42.75C1001.97 43.9432 1006.79 45.5175 1010.8 47.473C1014.81 49.4285 1018.09 51.732 1020.65 54.3835C1023.2 57.0019 1025.07 59.9517 1026.26 63.233C1027.49 66.5142 1028.12 70.0937 1028.15 73.9716C1028.12 80.6667 1026.45 86.3343 1023.13 90.9744C1019.82 95.6146 1015.08 99.1444 1008.91 101.564C1002.78 103.983 995.407 105.193 986.789 105.193C977.94 105.193 970.217 103.884 963.622 101.266C957.059 98.6473 951.955 94.6203 948.309 89.1847C944.697 83.7159 942.874 76.7225 942.841 68.2045H969.091C969.256 71.3201 970.035 73.9384 971.427 76.0597C972.819 78.1809 974.775 79.7884 977.294 80.8821C979.846 81.9759 982.878 82.5227 986.392 82.5227C989.342 82.5227 991.811 82.1581 993.799 81.429C995.788 80.6998 997.296 79.6889 998.324 78.3963C999.351 77.1037 999.881 75.6288 999.914 73.9716C999.881 72.4138 999.368 71.0549 998.373 69.8949C997.412 68.7017 995.821 67.6411 993.6 66.7131C991.38 65.7519 988.38 64.857 984.602 64.0284L974.46 61.8409C965.445 59.8854 958.335 56.6207 953.132 52.0469C947.961 47.4399 945.393 41.1591 945.426 33.2045C945.393 26.7415 947.116 21.0904 950.596 16.2514C954.109 11.3793 958.965 7.58428 965.163 4.86647C971.394 2.14867 978.537 0.789769 986.591 0.789769C994.81 0.789769 1001.92 2.16524 1007.92 4.91619C1013.92 7.66714 1018.54 11.545 1021.79 16.5497C1025.07 21.5213 1026.73 27.3381 1026.76 34H1000.31ZM1093.55 34C1093.29 30.6856 1092.05 28.1004 1089.83 26.2443C1087.64 24.3883 1084.31 23.4602 1079.83 23.4602C1076.98 23.4602 1074.65 23.8082 1072.82 24.5043C1071.03 25.1671 1069.71 26.0786 1068.85 27.2386C1067.98 28.3987 1067.54 29.7244 1067.5 31.2159C1067.44 32.4422 1067.65 33.5526 1068.15 34.5469C1068.68 35.508 1069.51 36.3864 1070.64 37.1818C1071.76 37.9441 1073.2 38.6401 1074.96 39.2699C1076.72 39.8996 1078.81 40.4631 1081.22 40.9602L1089.58 42.75C1095.21 43.9432 1100.03 45.5175 1104.04 47.473C1108.05 49.4285 1111.34 51.732 1113.89 54.3835C1116.44 57.0019 1118.31 59.9517 1119.51 63.233C1120.73 66.5142 1121.36 70.0937 1121.4 73.9716C1121.36 80.6667 1119.69 86.3343 1116.37 90.9744C1113.06 95.6146 1108.32 99.1444 1102.16 101.564C1096.02 103.983 1088.65 105.193 1080.03 105.193C1071.18 105.193 1063.46 103.884 1056.86 101.266C1050.3 98.6473 1045.2 94.6203 1041.55 89.1847C1037.94 83.7159 1036.12 76.7225 1036.08 68.2045H1062.33C1062.5 71.3201 1063.28 73.9384 1064.67 76.0597C1066.06 78.1809 1068.02 79.7884 1070.54 80.8821C1073.09 81.9759 1076.12 82.5227 1079.63 82.5227C1082.58 82.5227 1085.05 82.1581 1087.04 81.429C1089.03 80.6998 1090.54 79.6889 1091.57 78.3963C1092.59 77.1037 1093.12 75.6288 1093.16 73.9716C1093.12 72.4138 1092.61 71.0549 1091.62 69.8949C1090.65 68.7017 1089.06 67.6411 1086.84 66.7131C1084.62 65.7519 1081.62 64.857 1077.84 64.0284L1067.7 61.8409C1058.69 59.8854 1051.58 56.6207 1046.37 52.0469C1041.2 47.4399 1038.63 41.1591 1038.67 33.2045C1038.63 26.7415 1040.36 21.0904 1043.84 16.2514C1047.35 11.3793 1052.21 7.58428 1058.41 4.86647C1064.64 2.14867 1071.78 0.789769 1079.83 0.789769C1088.05 0.789769 1095.16 2.16524 1101.16 4.91619C1107.16 7.66714 1111.78 11.545 1115.03 16.5497C1118.31 21.5213 1119.97 27.3381 1120 34H1093.55Z" fill="#6A6964"/>
</svg>
